<svg width="76" height="76" viewBox="0 0 76 76" fill="none" xmlns="http://www.w3.org/2000/svg">
<rect width="76" height="76" rx="10" fill="#F6B31F"/>
<path d="M45.2406 22.7828C47.5828 25.4376 51.6335 25.691 54.2883 23.3489C56.943 21.0068 57.1965 16.956 54.8543 14.3012C52.5122 11.6465 48.4614 11.3931 45.8067 13.7352C43.1519 16.0773 42.8985 20.1281 45.2406 22.7828Z" stroke="white" stroke-width="3" stroke-miterlimit="22.9256" stroke-linecap="round" stroke-linejoin="round"/>
<path fill-rule="evenodd" clip-rule="evenodd" d="M46.1447 28.7668L28.9939 41.5029C28.9132 41.591 28.8271 41.6759 28.7355 41.7567C27.3407 42.9873 25.2122 42.8542 23.9816 41.4593C22.7509 40.0644 22.8842 37.936 24.279 36.7054C24.4115 36.5885 24.5506 36.484 24.6949 36.3917L39.3406 21.0965C39.4641 22.8761 40.1518 24.6307 41.4232 26.0717C42.7053 27.5249 44.3779 28.4291 46.1447 28.7668Z" stroke="white" stroke-width="3" stroke-miterlimit="22.9256" stroke-linecap="round" stroke-linejoin="round"/>
<path d="M45.2159 60.8217C39.2298 66.1029 29.0457 66.4861 23.7645 60.5C18.4833 54.5138 17.7785 46.4777 23.7645 41.1965" stroke="white" stroke-width="3" stroke-miterlimit="22.9256" stroke-linecap="round" stroke-linejoin="round"/>
</svg>
