<svg width="76" height="76" viewBox="0 0 76 76" fill="none" xmlns="http://www.w3.org/2000/svg">
<rect width="76" height="76" rx="10" fill="#F3ACC8"/>
<path fill-rule="evenodd" clip-rule="evenodd" d="M43.9968 16C44.8629 16 45.565 16.7021 45.565 17.5682C45.565 18.2904 45.0766 18.8985 44.4121 19.0806C43.8951 18.9056 43.3683 18.7523 42.8334 18.6194C42.5819 18.3413 42.4286 17.9727 42.4286 17.5682C42.4286 16.7021 43.1308 16 43.9968 16Z" stroke="white" stroke-width="3" stroke-miterlimit="22.9256" stroke-linecap="round" stroke-linejoin="round"/>
<path fill-rule="evenodd" clip-rule="evenodd" d="M37.9958 18.0289C49.0393 18.0289 57.9916 26.9815 57.9916 38.0247C57.9916 47.6093 51.2476 55.6175 42.2462 57.5662C42.3278 57.2321 42.3715 56.8832 42.3715 56.524C42.3715 54.1073 40.4125 52.1482 37.9958 52.1482C35.5791 52.1482 33.6201 54.1073 33.6201 56.524C33.6201 56.8832 33.6638 57.2321 33.7454 57.5662C24.744 55.6175 18 47.6093 18 38.0247C18 26.9815 26.9523 18.0289 37.9958 18.0289Z" stroke="white" stroke-width="3" stroke-miterlimit="22.9256" stroke-linecap="round" stroke-linejoin="round"/>
<path fill-rule="evenodd" clip-rule="evenodd" d="M46.2194 16.8002C47.0855 16.8002 47.7876 17.5023 47.7876 18.3683C47.7876 19.1454 47.2222 19.7904 46.4806 19.9147C45.976 19.6779 45.4603 19.4609 44.9337 19.266C44.8631 19.165 44.8041 19.0553 44.7585 18.9389C45.2394 18.6712 45.565 18.1577 45.565 17.5681C45.565 17.3667 45.5269 17.1742 45.4578 16.9973C45.6832 16.8717 45.9431 16.8002 46.2194 16.8002V16.8002Z" stroke="white" stroke-width="3" stroke-miterlimit="22.9256" stroke-linecap="round" stroke-linejoin="round"/>
<path d="M22.8544 40.3392C23.7385 37.6511 26.2688 35.7102 29.2527 35.7102C32.2367 35.7102 34.767 37.6511 35.6511 40.3392M40.3406 40.3392C41.2247 37.6511 43.7549 35.7102 46.7389 35.7102C49.7229 35.7102 52.2532 37.6511 53.1373 40.3392" stroke="white" stroke-width="3" stroke-miterlimit="22.9256" stroke-linecap="round" stroke-linejoin="round"/>
<path fill-rule="evenodd" clip-rule="evenodd" d="M37.9959 50.4945C41.212 50.4945 43.8191 51.6054 43.8191 52.9758C43.8191 53.6836 43.1233 54.3222 42.0074 54.7743C41.3323 53.2286 39.7904 52.1482 37.9959 52.1482C36.2013 52.1482 34.6594 53.2286 33.9843 54.7743C32.8684 54.3222 32.1726 53.6836 32.1726 52.9758C32.1726 51.6054 34.7798 50.4945 37.9959 50.4945Z" stroke="white" stroke-width="3" stroke-miterlimit="22.9256" stroke-linecap="round" stroke-linejoin="round"/>
<path d="M37.9958 60.8996C40.4125 60.8996 42.3716 58.9406 42.3716 56.5239C42.3716 54.1073 40.4125 52.1482 37.9958 52.1482C35.5792 52.1482 33.6201 54.1073 33.6201 56.5239C33.6201 58.9406 35.5792 60.8996 37.9958 60.8996Z" stroke="white" stroke-width="3" stroke-miterlimit="22.9256" stroke-linecap="round" stroke-linejoin="round"/>
<path d="M37.9958 58.6835C39.1885 58.6835 40.1554 57.7167 40.1554 56.524C40.1554 55.3313 39.1885 54.3644 37.9958 54.3644C36.8031 54.3644 35.8362 55.3313 35.8362 56.524C35.8362 57.7167 36.8031 58.6835 37.9958 58.6835Z" stroke="white" stroke-width="3" stroke-miterlimit="22.9256" stroke-linecap="round" stroke-linejoin="round"/>
</svg>
