<svg width="76" height="76" viewBox="0 0 76 76" fill="none" xmlns="http://www.w3.org/2000/svg">
<rect width="76" height="76" rx="10" fill="#F3ACC8"/>
<path d="M55.226 43.619C55.225 46.123 55.2238 48.5326 55.2222 48.5931C55.0211 55.7947 49.1195 61.5711 41.869 61.5711C34.6689 61.5711 28.7992 55.8749 28.5209 48.7432C28.5141 48.5675 28.5106 38.1931 28.5106 38.0154" stroke="white" stroke-width="3" stroke-miterlimit="22.9256" stroke-linecap="round" stroke-linejoin="round"/>
<path d="M55.2276 43.619C58.3223 43.619 60.8311 41.1102 60.8311 38.0155C60.8311 34.9208 58.3223 32.412 55.2276 32.412C52.1329 32.412 49.6241 34.9208 49.6241 38.0155C49.6241 41.1102 52.1329 43.619 55.2276 43.619Z" stroke="white" stroke-width="3" stroke-miterlimit="22.9256" stroke-linecap="round" stroke-linejoin="round"/>
<path d="M55.2276 40.5385C56.621 40.5385 57.7507 39.4089 57.7507 38.0154C57.7507 36.622 56.621 35.4923 55.2276 35.4923C53.8341 35.4923 52.7045 36.622 52.7045 38.0154C52.7045 39.4089 53.8341 40.5385 55.2276 40.5385Z" stroke="white" stroke-width="3" stroke-miterlimit="22.9256" stroke-linecap="round" stroke-linejoin="round"/>
<path d="M39.4624 20.0462C40.8559 20.0462 41.9856 18.9166 41.9856 17.5231C41.9856 16.1296 40.8559 15 39.4624 15C38.069 15 36.9393 16.1296 36.9393 17.5231C36.9393 18.9166 38.069 20.0462 39.4624 20.0462Z" stroke="white" stroke-width="3" stroke-miterlimit="22.9256" stroke-linecap="round" stroke-linejoin="round"/>
<path d="M17.5231 20.1001C18.9166 20.1001 20.0462 18.9704 20.0462 17.5769C20.0462 16.1835 18.9166 15.0538 17.5231 15.0538C16.1296 15.0538 15 16.1835 15 17.5769C15 18.9704 16.1296 20.1001 17.5231 20.1001Z" stroke="white" stroke-width="3" stroke-miterlimit="22.9256" stroke-linecap="round" stroke-linejoin="round"/>
<path d="M40.659 19.7448C41.3179 21.313 41.6824 23.0359 41.6824 24.8437C41.6824 32.118 35.7852 38.0153 28.5106 38.0153C21.236 38.0153 15.3389 32.118 15.3389 24.8437C15.3389 23.0586 15.6939 21.3566 16.3374 19.8044" stroke="white" stroke-width="3" stroke-miterlimit="22.9256" stroke-linecap="round" stroke-linejoin="round"/>
</svg>
