<svg width="76" height="76" viewBox="0 0 76 76" fill="none" xmlns="http://www.w3.org/2000/svg">
<rect width="76" height="76" rx="10" fill="#F6B31F"/>
<path fill-rule="evenodd" clip-rule="evenodd" d="M34.5494 17.0001H34.5495C35.05 17.0001 35.4594 17.4095 35.4594 17.9098V28.7013H37.2791V17.9099C37.2791 17.4095 37.6885 17.0001 38.189 17.0001H38.1891C38.6896 17.0001 39.0989 17.4095 39.0989 17.9099V29.6111V29.6112C39.0989 30.1117 38.6896 30.5211 38.1891 30.5211H38.189H35.4594V61.7911C35.4594 62.2915 35.05 62.7009 34.5495 62.7009H34.5494C34.049 62.7009 33.6396 62.2915 33.6396 61.7911V30.5211H30.9099H30.9098C30.4094 30.5211 30 30.1117 30 29.6112V29.6111V17.9099C30 17.4095 30.4094 17.0001 30.9098 17.0001H30.9099C31.4104 17.0001 31.8198 17.4095 31.8198 17.9099V28.7013H33.6396V17.9098C33.6396 17.4095 34.049 17.0001 34.5494 17.0001V17.0001ZM44.9592 17.0027H44.9595L44.982 17.0048H44.9827C45.4465 17.052 45.8564 17.4442 45.7992 17.9098V61.7911C45.7992 62.2915 45.3898 62.7009 44.8894 62.7009H44.8893C44.3888 62.7009 43.9794 62.2915 43.9794 61.7911V48.388H41.2498H41.2497L41.2264 48.3877H41.2263L41.2031 48.3867H41.2029L41.1799 48.3853L41.1796 48.3853L41.157 48.3833L41.1564 48.3832L41.1342 48.3807L41.1332 48.3806C40.6792 48.323 40.2834 47.9362 40.3398 47.4781V47.478C40.3398 47.4024 40.3493 47.3289 40.3669 47.2586L43.9794 17.9098C43.9794 17.4407 44.3392 17.0515 44.7966 17.0048H44.7973L44.8195 17.0027H44.8199L44.8427 17.0013L44.8429 17.0012L44.8659 17.0004V17.0003L44.8893 17.0001V17H44.8894C44.9127 17 44.936 17.0009 44.9592 17.0027V17.0027Z" stroke="white" stroke-width="3" stroke-miterlimit="22.9256" stroke-linecap="round" stroke-linejoin="round"/>
</svg>
