<svg width="76" height="76" viewBox="0 0 76 76" fill="none" xmlns="http://www.w3.org/2000/svg">
<rect width="76" height="76" rx="10" fill="#F3ACC8"/>
<path d="M34.0808 36.0104L18.5284 47.9177C17.6843 48.564 17.547 49.8024 18.2218 50.6837L30.034 66.1119C30.7087 66.9932 31.94 67.1838 32.7841 66.5375L48.3366 54.6303C49.1807 53.984 49.3179 52.7456 48.6432 51.8643L36.831 36.4361C36.1562 35.5547 34.9249 35.3642 34.0808 36.0104Z" stroke="white" stroke-width="3" stroke-miterlimit="22.9256" stroke-linecap="round" stroke-linejoin="round"/>
<path d="M32.1557 49.4531L32.0086 49.5657C31.0753 50.2803 30.9235 51.6496 31.6696 52.6241C32.4157 53.5986 33.7772 53.8093 34.7105 53.0947L34.8576 52.9821C35.7909 52.2675 35.9427 50.8982 35.1966 49.9237C34.4505 48.9492 33.089 48.7385 32.1557 49.4531Z" stroke="white" stroke-width="3" stroke-miterlimit="22.9256" stroke-linecap="round" stroke-linejoin="round"/>
<path d="M22.3721 51.3248L22.4847 51.4718C23.1992 52.4052 24.5685 52.557 25.543 51.8109C26.5175 51.0648 26.7282 49.7033 26.0137 48.7699L25.9011 48.6229C25.1865 47.6895 23.8172 47.5377 22.8427 48.2838C21.8682 49.03 21.6575 50.3914 22.3721 51.3248Z" stroke="white" stroke-width="3" stroke-miterlimit="22.9256" stroke-linecap="round" stroke-linejoin="round"/>
<path d="M40.8514 53.7779L40.9641 53.9249C41.6786 54.8583 43.0479 55.0101 44.0224 54.264C44.9969 53.5178 45.2076 52.1564 44.4931 51.223L44.3805 51.076C43.6659 50.1426 42.2966 49.9908 41.3221 50.7369C40.3476 51.483 40.1369 52.8445 40.8514 53.7779Z" stroke="white" stroke-width="3" stroke-miterlimit="22.9256" stroke-linecap="round" stroke-linejoin="round"/>
<path d="M36.5458 10.8267L30.3685 29.4144C30.0332 30.4232 30.6153 31.5248 31.6686 31.8749L50.1079 38.0028C51.1612 38.3529 52.2869 37.8189 52.6222 36.81L58.7995 18.2223C59.1347 17.2135 58.5526 16.1119 57.4993 15.7618L39.0601 9.63384C38.0067 9.28378 36.881 9.81783 36.5458 10.8267Z" stroke="white" stroke-width="3" stroke-miterlimit="22.9256" stroke-linecap="round" stroke-linejoin="round"/>
<path d="M42.5045 23.0295L42.446 23.2053C42.0753 24.3208 42.719 25.5388 43.8837 25.9259C45.0484 26.313 46.2931 25.7225 46.6638 24.607L46.7222 24.4312C47.0929 23.3157 46.4493 22.0976 45.2846 21.7106C44.1199 21.3235 42.8752 21.914 42.5045 23.0295Z" stroke="white" stroke-width="3" stroke-miterlimit="22.9256" stroke-linecap="round" stroke-linejoin="round"/>
</svg>
