<svg width="76" height="76" viewBox="0 0 76 76" fill="none" xmlns="http://www.w3.org/2000/svg">
<rect width="76" height="76" rx="10" fill="#F6B31F"/>
<path fill-rule="evenodd" clip-rule="evenodd" d="M31.3868 18C40.9892 18 48.7735 24.2161 48.7735 31.884C48.7735 39.5519 40.9892 45.7682 31.3868 45.7682C30.9839 45.7682 30.5842 45.7563 30.1882 45.7347C27.3255 47.9084 23.5248 49.2943 19.3138 49.5166C21.1698 47.7142 22.4681 46.7533 22.9984 44.0474C17.6339 41.6835 14 37.1228 14 31.884C14 24.2161 21.7843 18 31.3868 18V18ZM32.2307 49.0724C35.3184 51.5113 39.4205 52.9977 43.922 52.9977C44.3249 52.9977 44.7245 52.9848 45.1206 52.9613C47.9832 55.3266 51.7839 56.8345 55.9949 57.0764C54.139 55.1152 52.8406 54.0697 52.3104 51.1253C57.6749 48.5531 61.3087 43.5904 61.3087 37.89C61.3087 30.9041 55.8514 25.0267 48.4392 23.2985C50.894 25.9034 52.3676 29.2335 52.3676 32.8629C52.3676 41.2066 44.5833 47.9705 34.9808 47.9705C34.5779 47.9705 34.1783 47.9576 33.7823 47.9342C33.2917 48.3394 32.7736 48.7195 32.2307 49.0724V49.0724Z" stroke="white" stroke-width="3" stroke-miterlimit="22.9256" stroke-linecap="round" stroke-linejoin="round"/>
</svg>
