<svg width="76" height="76" viewBox="0 0 76 76" fill="none" xmlns="http://www.w3.org/2000/svg">
<rect width="76" height="76" rx="10" fill="#F6B31F"/>
<path d="M38.251 14L10 26.2408L38.251 38.4816L66.502 26.2408L38.251 14Z" stroke="white" stroke-width="3" stroke-miterlimit="22.9256" stroke-linecap="round" stroke-linejoin="round"/>
<path fill-rule="evenodd" clip-rule="evenodd" d="M54.3577 34.9588V57.2646C54.3577 59.4937 47.1467 61.3008 38.2515 61.3008C29.3564 61.3008 22.1454 59.4937 22.1454 57.2646V34.9588L38.2514 41.9375L54.3577 34.9588Z" stroke="white" stroke-width="3" stroke-miterlimit="22.9256" stroke-linecap="round" stroke-linejoin="round"/>
<path fill-rule="evenodd" clip-rule="evenodd" d="M61.2684 28.509C61.3416 28.6528 61.3828 28.8151 61.3828 28.9867V45.4429C61.3828 46.0261 60.9058 46.5031 60.3226 46.5031C59.7394 46.5031 59.2624 46.0261 59.2624 45.4429V29.3782L61.2684 28.509V28.509Z" stroke="white" stroke-width="3" stroke-miterlimit="22.9256" stroke-linecap="round" stroke-linejoin="round"/>
<path d="M61.3828 51.8951C61.3828 50.1586 60.9082 48.751 60.3226 48.751C59.7371 48.751 59.2624 50.1586 59.2624 51.8951V55.9784C59.2624 57.7148 59.7371 59.1224 60.3226 59.1224C60.9082 59.1224 61.3828 57.7148 61.3828 55.9784V51.8951Z" stroke="white" stroke-width="3" stroke-miterlimit="22.9256" stroke-linecap="round" stroke-linejoin="round"/>
</svg>
