<svg width="76" height="76" viewBox="0 0 76 76" fill="none" xmlns="http://www.w3.org/2000/svg">
<rect width="76" height="76" rx="10" fill="#F3ACC8"/>
<path d="M47.4294 49.7497C46.7464 55.8537 41.5318 60.6401 35.2526 60.6401C28.5132 60.6401 23 55.1265 23 48.3875V27.2526C23 20.5137 28.5132 15 35.2526 15C41.992 15 47.5052 20.5137 47.5052 27.2526V32.6679" stroke="white" stroke-width="3" stroke-miterlimit="22.9256" stroke-linecap="round" stroke-linejoin="round"/>
<path fill-rule="evenodd" clip-rule="evenodd" d="M35.2526 18.2957C40.1425 18.2957 44.1065 22.2597 44.1065 27.1496C44.1065 31.282 41.2755 34.7529 37.4472 35.7292C37.2456 34.7011 36.3398 33.9255 35.2526 33.9255C34.1654 33.9255 33.2596 34.7011 33.0579 35.7292C29.2296 34.7529 26.3986 31.282 26.3986 27.1496C26.3986 22.2597 30.3626 18.2957 35.2526 18.2957Z" stroke="white" stroke-width="3" stroke-miterlimit="22.9256" stroke-linecap="round" stroke-linejoin="round"/>
<path d="M35.2526 38.3988C36.4879 38.3988 37.4893 37.3974 37.4893 36.1621C37.4893 34.9268 36.4879 33.9254 35.2526 33.9254C34.0173 33.9254 33.0159 34.9268 33.0159 36.1621C33.0159 37.3974 34.0173 38.3988 35.2526 38.3988Z" stroke="white" stroke-width="3" stroke-miterlimit="22.9256" stroke-linecap="round" stroke-linejoin="round"/>
<path d="M29.817 28.2017C30.1414 27.3666 30.9528 26.7747 31.9025 26.7747C32.8522 26.7747 33.6637 27.3666 33.9881 28.2017" stroke="white" stroke-width="3" stroke-miterlimit="22.9256" stroke-linecap="round" stroke-linejoin="round"/>
<path d="M36.517 28.2017C36.8414 27.3666 37.6528 26.7747 38.6026 26.7747C39.5523 26.7747 40.3637 27.3666 40.6881 28.2017" stroke="white" stroke-width="3" stroke-miterlimit="22.9256" stroke-linecap="round" stroke-linejoin="round"/>
<path d="M31.9025 31.1201C32.7837 31.1201 33.498 30.4058 33.498 29.5246C33.498 28.6435 32.7837 27.9292 31.9025 27.9292C31.0214 27.9292 30.3071 28.6435 30.3071 29.5246C30.3071 30.4058 31.0214 31.1201 31.9025 31.1201Z" stroke="white" stroke-width="3" stroke-miterlimit="22.9256" stroke-linecap="round" stroke-linejoin="round"/>
<path d="M38.6025 31.1201C39.4837 31.1201 40.198 30.4058 40.198 29.5246C40.198 28.6435 39.4837 27.9292 38.6025 27.9292C37.7214 27.9292 37.0071 28.6435 37.0071 29.5246C37.0071 30.4058 37.7214 31.1201 38.6025 31.1201Z" stroke="white" stroke-width="3" stroke-miterlimit="22.9256" stroke-linecap="round" stroke-linejoin="round"/>
<path d="M35.2526 37.196C35.8234 37.196 36.2862 36.7332 36.2862 36.1623C36.2862 35.5914 35.8234 35.1287 35.2526 35.1287C34.6817 35.1287 34.2189 35.5914 34.2189 36.1623C34.2189 36.7332 34.6817 37.196 35.2526 37.196Z" stroke="white" stroke-width="3" stroke-miterlimit="22.9256" stroke-linecap="round" stroke-linejoin="round"/>
<path fill-rule="evenodd" clip-rule="evenodd" d="M42.4388 42.6766V39.6988H46.0163V36.1213H48.9941V39.6988H52.5716V42.6766H48.9941V46.2541H46.0163V42.6766H42.4388Z" stroke="white" stroke-width="3" stroke-miterlimit="22.9256" stroke-linecap="round" stroke-linejoin="round"/>
</svg>
