<svg width="76" height="76" viewBox="0 0 76 76" fill="none" xmlns="http://www.w3.org/2000/svg">
<rect width="76" height="76" rx="10" fill="#8081BD"/>
<path fill-rule="evenodd" clip-rule="evenodd" d="M55.7071 52.1605C51.516 57.3897 45.0764 60.7391 37.8536 60.7391C30.6307 60.7391 24.1911 57.3897 20 52.1605C22.3824 49.1883 25.4911 46.8233 29.0576 45.3359C31.6013 46.9498 34.618 47.8849 37.8536 47.8849C41.0891 47.8849 44.1058 46.9498 46.6496 45.3359C50.2161 46.8233 53.3247 49.1883 55.7071 52.1605Z" stroke="white" stroke-width="3" stroke-miterlimit="22.9256" stroke-linejoin="round"/>
<path d="M37.8536 47.8848C46.9345 47.8848 54.296 40.5233 54.296 31.4424C54.296 22.3615 46.9345 15 37.8536 15C28.7727 15 21.4111 22.3615 21.4111 31.4424C21.4111 40.5233 28.7727 47.8848 37.8536 47.8848Z" stroke="white" stroke-width="3" stroke-miterlimit="22.9256" stroke-linejoin="round"/>
<path d="M37.8535 40.1872C42.6832 40.1872 46.5983 36.272 46.5983 31.4424C46.5983 26.6128 42.6832 22.6976 37.8535 22.6976C33.0239 22.6976 29.1088 26.6128 29.1088 31.4424C29.1088 36.272 33.0239 40.1872 37.8535 40.1872Z" stroke="white" stroke-width="3" stroke-miterlimit="22.9256" stroke-linejoin="round"/>
<path d="M37.8535 34.2317C39.3939 34.2317 40.6427 32.9829 40.6427 31.4425C40.6427 29.9021 39.3939 28.6533 37.8535 28.6533C36.3131 28.6533 35.0643 29.9021 35.0643 31.4425C35.0643 32.9829 36.3131 34.2317 37.8535 34.2317Z" stroke="white" stroke-width="3" stroke-miterlimit="22.9256" stroke-linejoin="round"/>
</svg>
