<?xml version="1.0" encoding="UTF-8"?>
<svg xmlns="http://www.w3.org/2000/svg" xmlns:xlink="http://www.w3.org/1999/xlink" width="24px" height="24px" viewBox="0 0 24 24" version="1.1">
<g id="surface1">
<path style=" stroke:none;fill-rule:nonzero;fill:rgb(100%,100%,100%);fill-opacity:1;" d="M 2.371094 17.601562 L 2.339844 17.546875 C 1.363281 15.847656 0.84375 13.917969 0.84375 11.949219 C 0.847656 5.769531 5.875 0.75 12.046875 0.75 C 15.042969 0.75 17.855469 1.917969 19.972656 4.035156 C 22.082031 6.148438 23.25 8.960938 23.25 11.957031 C 23.246094 18.132812 18.21875 23.15625 12.046875 23.15625 C 10.175781 23.152344 8.320312 22.683594 6.6875 21.792969 L 6.636719 21.765625 L 0.8125 23.292969 Z M 2.371094 17.601562 "/>
<path style=" stroke:none;fill-rule:nonzero;fill:rgb(91.764706%,36.470588%,29.019608%);fill-opacity:1;" d="M 12.046875 0.898438 C 15.003906 0.898438 17.78125 2.046875 19.867188 4.140625 C 21.953125 6.230469 23.101562 9.003906 23.101562 11.957031 C 23.09375 18.050781 18.140625 23.007812 12.042969 23.007812 C 10.199219 23 8.371094 22.539062 6.765625 21.660156 L 6.65625 21.605469 L 6.539062 21.632812 L 1.027344 23.078125 L 2.5 17.699219 L 2.53125 17.578125 L 2.46875 17.46875 C 1.503906 15.796875 0.992188 13.890625 0.992188 11.949219 C 1 5.855469 5.957031 0.898438 12.046875 0.898438 M 12.046875 0.601562 C 5.789062 0.601562 0.699219 5.691406 0.695312 11.949219 C 0.695312 13.945312 1.214844 15.898438 2.207031 17.621094 L 0.601562 23.503906 L 6.617188 21.921875 C 8.273438 22.828125 10.144531 23.300781 12.042969 23.304688 L 12.046875 23.304688 C 18.304688 23.304688 23.394531 18.214844 23.398438 11.957031 C 23.398438 8.925781 22.21875 6.070312 20.078125 3.929688 C 17.933594 1.78125 15.085938 0.601562 12.046875 0.601562 Z M 12.046875 0.601562 "/>
<path style=" stroke:none;fill-rule:nonzero;fill:rgb(91.764706%,36.470588%,29.019608%);fill-opacity:1;" d="M 11.996094 21 C 10.496094 21 9.003906 20.621094 7.695312 19.90625 L 6.839844 19.4375 L 5.890625 19.683594 L 3.941406 20.195312 L 4.445312 18.378906 L 4.714844 17.386719 L 4.199219 16.492188 C 3.414062 15.132812 3 13.574219 3 11.996094 C 3.003906 7.035156 7.039062 3 12 3 C 14.40625 3 16.664062 3.9375 18.367188 5.640625 C 20.066406 7.335938 21 9.601562 21 12.003906 C 20.996094 16.964844 16.960938 21 11.996094 21 Z M 11.996094 21 "/>
<path style=" stroke:none;fill-rule:nonzero;fill:rgb(100%,100%,100%);fill-opacity:1;" d="M 16.96875 14.210938 C 16.695312 14.078125 15.371094 13.425781 15.125 13.335938 C 14.878906 13.242188 14.695312 13.199219 14.515625 13.46875 C 14.339844 13.738281 13.824219 14.347656 13.664062 14.527344 C 13.503906 14.703125 13.351562 14.726562 13.082031 14.59375 C 12.8125 14.460938 11.9375 14.175781 10.914062 13.257812 C 10.109375 12.539062 9.566406 11.65625 9.414062 11.386719 C 9.253906 11.117188 9.394531 10.972656 9.53125 10.835938 C 9.652344 10.71875 9.800781 10.523438 9.933594 10.363281 C 10.070312 10.210938 10.109375 10.097656 10.203125 9.914062 C 10.292969 9.734375 10.25 9.578125 10.179688 9.445312 C 10.109375 9.308594 9.578125 7.984375 9.351562 7.4375 C 9.132812 6.914062 8.910156 6.988281 8.742188 6.980469 C 8.582031 6.96875 8.40625 6.96875 8.226562 6.96875 C 8.046875 6.96875 7.753906 7.035156 7.503906 7.308594 C 7.261719 7.578125 6.5625 8.226562 6.5625 9.558594 C 6.5625 10.882812 7.53125 12.164062 7.664062 12.347656 C 7.800781 12.523438 9.566406 15.25 12.273438 16.421875 C 12.914062 16.691406 13.421875 16.859375 13.808594 16.984375 C 14.457031 17.1875 15.042969 17.160156 15.511719 17.09375 C 16.027344 17.015625 17.105469 16.4375 17.328125 15.8125 C 17.554688 15.183594 17.554688 14.640625 17.488281 14.527344 C 17.417969 14.414062 17.234375 14.347656 16.96875 14.210938 Z M 16.96875 14.210938 "/>
</g>
</svg>
