<svg width="22" height="19" viewBox="0 0 22 19" fill="none" xmlns="http://www.w3.org/2000/svg">
<path fill-rule="evenodd" clip-rule="evenodd" d="M12.0691 13.59C12.0031 13.635 11.9671 13.698 11.8981 13.746C11.8771 13.761 11.8711 13.761 11.8501 13.779C11.8381 13.788 11.82 13.809 11.808 13.821L11.1779 14.4031C11.1389 14.4361 11.1269 14.4391 11.0879 14.4782L9.56362 15.8734C9.52761 15.9094 9.51261 15.9124 9.4736 15.9454C9.38058 16.0294 9.30257 16.1285 9.20055 16.1975C9.22155 15.9364 9.32957 15.3573 9.37458 15.0933C9.4616 14.5712 9.54261 13.9441 9.63563 13.434C9.65664 13.3139 9.77366 12.4198 9.81867 12.3417L11.493 10.7814C11.571 10.7244 11.652 10.6194 11.736 10.5504L13.5184 8.89109C13.5364 8.87609 13.5484 8.86408 13.5604 8.85208L14.1485 8.30598C14.2595 8.19195 14.3645 8.10494 14.4756 7.99392L14.6406 7.84689C14.6976 7.78988 14.7456 7.73287 14.8086 7.68486L15.0457 7.46582C15.1387 7.3878 15.2107 7.29778 15.3097 7.22277L16.2129 6.37061C16.2519 6.3376 16.2639 6.3346 16.3029 6.29559L17.2211 5.44343C17.2541 5.41643 17.2751 5.39242 17.3051 5.36242C17.3351 5.33241 17.3531 5.30841 17.3861 5.2784C17.5091 5.16738 17.6982 5.01435 17.7912 4.88232C17.9592 4.65128 17.8152 4.2552 17.2091 4.66028C16.903 4.86732 16.5099 5.09836 16.1829 5.2904L16.0719 5.35941C16.0689 5.35941 16.0629 5.36242 16.0599 5.36542C16.0388 5.37742 16.0388 5.38042 16.0208 5.39242C15.9218 5.45543 15.8108 5.52445 15.7088 5.58746C15.6008 5.65047 15.5017 5.71048 15.3937 5.77949C15.2857 5.85151 15.1747 5.91152 15.0697 5.98053L14.3765 6.41862C14.3435 6.43962 14.3255 6.44562 14.2925 6.46663C14.2565 6.48463 14.2415 6.49363 14.2085 6.51463L13.1793 7.15676C13.0653 7.21677 12.9753 7.28278 12.8642 7.35179L11.9911 7.8889C11.9611 7.9099 11.9491 7.9189 11.9131 7.93991L10.5028 8.81007C10.4458 8.84908 10.4008 8.88209 10.3468 8.91509L9.90868 9.18514C9.88168 9.20315 9.89068 9.19715 9.86968 9.20915L9.11653 9.66823C8.67845 9.93529 8.25237 10.2173 7.81128 10.4784C7.74527 10.5174 7.71527 10.5414 7.64625 10.5774C7.59224 10.6074 7.52623 10.6404 7.49322 10.6854C7.3912 10.6194 6.77909 10.4394 6.61406 10.3854L3.94655 9.4792C3.74251 9.41019 3.55948 9.35017 3.35544 9.28416L3.08539 9.19415C3.01337 9.17014 2.84834 9.10413 2.77033 9.09513C2.82734 9.02011 3.12139 8.9391 3.23241 8.88509L3.85953 8.62404C4.03957 8.54602 4.2196 8.46501 4.39663 8.39299C4.58567 8.31498 4.76871 8.24296 4.95174 8.16195L5.7709 7.81388C5.95093 7.74187 6.12796 7.64585 6.317 7.58284C6.70407 7.45381 8.06033 6.8447 8.49241 6.66766C8.57943 6.63166 8.67245 6.59265 8.76847 6.54764C9.22155 6.3466 9.68964 6.17257 10.1457 5.97753L10.5598 5.8005C11.0579 5.57546 11.568 5.38042 12.0691 5.16138L14.8176 4.00616C15.2587 3.82012 15.6698 3.61908 16.1199 3.45405L16.3299 3.37004C16.3779 3.34903 16.4139 3.33403 16.4679 3.31302C16.5669 3.27402 16.654 3.23201 16.744 3.196L19.7716 1.92676C19.9306 1.85775 20.1736 1.73772 20.3327 1.70172C20.3327 1.88175 20.1016 2.95296 20.0626 3.166C20.0386 3.29202 20.0146 3.40604 19.9906 3.52307C19.9666 3.64309 19.9486 3.76911 19.9186 3.88913L19.8466 4.28221C19.8436 4.31822 19.8376 4.35122 19.8316 4.38123L18.5233 11.0605C18.5173 11.0875 18.5113 11.1055 18.5053 11.1235C18.5023 11.1355 18.4993 11.1775 18.4933 11.2105L18.4663 11.3606C18.4483 11.4896 18.4183 11.6036 18.3943 11.7326C18.2983 12.2127 18.2023 12.7108 18.1032 13.1969C18.0702 13.3619 17.3591 17.0676 17.3141 17.1787C17.2091 17.4247 16.906 17.2927 16.771 17.1817C16.3419 16.8306 15.8768 16.5155 15.4477 16.1615C15.1597 15.9214 14.8476 15.6964 14.5476 15.4713C14.3435 15.3183 13.8574 14.9252 13.7044 14.8232L13.4614 14.6402C13.4584 14.6372 13.4554 14.6342 13.4524 14.6342L13.3833 14.5862C13.3593 14.5652 13.3473 14.5562 13.3203 14.5352C13.2303 14.4692 13.1553 14.4061 13.0683 14.3431L12.4622 13.869C12.4382 13.851 12.4172 13.839 12.3932 13.821L12.1471 13.626C12.1141 13.602 12.1141 13.599 12.0691 13.59ZM6.16697 11.9487C6.16997 11.9997 6.17897 12.0117 6.19098 12.0537L6.39802 12.7498C6.44302 12.8848 6.48203 13.0379 6.53004 13.1759L6.79409 14.0431C7.03714 14.7632 7.22917 15.4893 7.46622 16.2065C7.51723 16.3535 7.54723 16.4885 7.59524 16.6356C7.70326 16.9506 7.76328 17.1487 7.92231 17.4397L8.03033 17.6107C8.12034 17.7218 8.20136 17.8178 8.31238 17.9018C8.37839 17.9498 8.4054 17.9678 8.48941 18.0038C8.86749 18.1779 9.25756 18.1328 9.62963 17.9738C9.84867 17.8778 10.1457 17.5537 10.3678 17.3467L10.5478 17.1847C10.5838 17.1517 10.6018 17.1457 10.6378 17.1097C10.6558 17.0947 10.6618 17.0886 10.6828 17.0706L10.6978 17.0556C10.7008 17.0556 10.7038 17.0496 10.7068 17.0496L11.0129 16.7796C11.1929 16.6296 11.355 16.4525 11.532 16.2995C11.655 16.1915 11.763 16.0715 11.8921 15.9694C11.9281 15.9394 11.9491 15.9154 11.9821 15.8794C12.0211 15.8404 12.0301 15.8374 12.0721 15.8044C12.1111 15.7744 12.1261 15.7504 12.1681 15.7204C12.4532 15.9124 12.8552 16.2275 13.1463 16.4645C13.2003 16.5095 13.2453 16.5335 13.2963 16.5786L14.5656 17.5537C14.6136 17.5957 14.6556 17.6197 14.7036 17.6618L14.8416 17.7698C14.8956 17.8088 14.9376 17.8418 14.9887 17.8838C15.0367 17.9198 15.0847 17.9498 15.1297 17.9888C15.3637 18.1899 15.6278 18.3519 15.8648 18.5499L15.9758 18.6369C16.1889 18.814 16.621 18.934 16.939 18.934C17.4671 18.934 17.8062 18.871 18.2233 18.5799L18.5653 18.2499C18.7274 18.0818 18.8774 17.7908 18.9254 17.5597L19.3305 15.5043C19.4085 15.1113 19.4775 14.7332 19.5555 14.3371C19.5765 14.2351 19.5915 14.1421 19.6125 14.0491C19.6245 13.9861 19.6155 13.9981 19.6335 13.923L19.7626 13.2329C20.1556 11.2855 20.5277 9.29616 20.9208 7.35479C20.9388 7.25878 20.9598 7.14776 20.9688 7.08474C20.9778 7.02473 20.9898 6.98872 20.9958 6.95272L21.0888 6.46663C21.0918 6.46362 21.0918 6.46062 21.0918 6.45762L21.926 2.19381C22.046 1.5877 22.049 1.11961 21.7129 0.615511L21.5749 0.441478C21.4249 0.276446 21.2148 0.165425 20.9988 0.0844096C20.3327 -0.164638 19.6485 0.19243 19.0454 0.444478L17.6502 1.03559C17.6021 1.05659 17.5811 1.0626 17.5301 1.0806C17.4941 1.0926 17.4641 1.11061 17.4281 1.12561L16.87 1.35365C16.723 1.41366 16.585 1.47668 16.4349 1.54269L14.0105 2.55988C13.9354 2.59289 13.8574 2.61989 13.7914 2.6529L12.4772 3.208C12.3271 3.27402 12.1831 3.33103 12.0301 3.40004L11.1509 3.76611C11.1029 3.78411 11.0999 3.79012 11.0459 3.81112C10.9919 3.82912 10.9799 3.83812 10.9319 3.85913L6.45503 5.74649C6.41002 5.76749 6.38901 5.77649 6.341 5.7945L4.82272 6.43962C4.78971 6.45462 4.7537 6.46663 4.7147 6.48163C4.68469 6.49063 4.67869 6.49363 4.65468 6.50263L3.72151 6.89571C3.57148 6.95872 3.43345 7.01873 3.28042 7.08174L2.19122 7.54683C2.00218 7.62785 1.84315 7.71486 1.66912 7.81388L1.5701 7.87989C1.32105 8.05993 1.13501 8.27897 1.01199 8.56703C0.798951 9.06812 0.95498 9.56322 1.25804 9.97129C1.45007 10.2293 1.86115 10.5024 2.17321 10.6104C2.26623 10.6434 2.32924 10.6614 2.41626 10.6974L4.27661 11.3276C4.58867 11.4326 4.89773 11.5556 5.21579 11.6366C5.36582 11.6756 5.53085 11.7386 5.68388 11.7926C5.7979 11.8316 6.05595 11.9397 6.16697 11.9487Z" fill="white"/>
</svg>
