<svg width="30" height="18" viewBox="0 0 30 18" fill="none" xmlns="http://www.w3.org/2000/svg">
<path fill-rule="evenodd" clip-rule="evenodd" d="M9.81963 2.02019C10.236 2.05532 10.5664 2.19479 10.85 2.38092C11.1834 2.59978 11.2732 2.79211 11.401 3.2273C11.816 4.64049 11.6456 6.31219 11.4951 7.75684C11.4592 8.10122 11.4016 8.37108 11.2823 8.65337C11.1621 8.93788 11.0958 9.04141 10.9204 9.1061C10.2901 9.33868 9.66767 8.59473 9.33919 8.18477C8.87809 7.60919 8.35495 6.66217 8.00975 5.96142C7.85851 5.65446 7.72995 5.45527 7.58543 5.16219L6.44968 2.74257C6.30477 2.4121 6.25818 2.18993 6.02443 1.94428C5.49965 1.39274 5.09134 1.55215 4.1589 1.55194C3.70152 1.5518 0.978577 1.51544 0.656117 1.57291C0.478526 1.60459 0.354347 1.65632 0.236776 1.73331C0.0958367 1.8256 0.0243766 1.94936 0 2.0907V2.34593C0.0599157 2.77442 0.376776 3.27558 0.495494 3.56675C1.25983 5.44195 2.59974 7.8732 3.68591 9.69909C4.50946 11.0836 5.78341 12.814 6.79808 14.0376C7.39887 14.7622 7.25595 14.5242 7.7262 14.9702C8.0569 15.2839 8.37414 15.5318 8.75631 15.7994C11.6227 17.8068 12.6939 17.8242 16.0002 17.8242C17.473 17.8242 17.2636 16.9003 17.3316 16.0126C17.3657 15.5679 17.4749 15.088 17.6354 14.7399C17.7205 14.5554 17.8243 14.3801 17.9487 14.238C18.5453 13.5565 19.145 14.0174 19.6913 14.5521L20.7701 15.7417C21.1913 16.2936 22.2041 17.2876 22.8741 17.5898C24.0277 18.1102 25.3242 17.8179 26.4548 17.8238C27.5945 17.8298 29.5744 18.0354 29.5744 16.9462C29.5744 16.2598 29.2278 15.9009 28.9639 15.4577C28.4644 14.6188 26.3968 12.5158 25.6047 11.8377C25.4148 11.6751 24.7801 10.9722 24.7801 10.5075C24.7801 9.62745 26.298 7.87538 26.9337 7.01208C27.661 6.02439 31.2728 1.55194 28.5924 1.55194L23.5337 1.58577C23.2663 1.55427 23.0717 1.59071 22.8871 1.74082C22.7076 1.88678 22.6196 2.04073 22.5276 2.25452C22.0663 3.32639 21.7925 4.14134 21.1655 5.20571C21.0494 5.40258 20.9961 5.53522 20.8775 5.73336L19.8705 7.34692C19.75 7.53132 19.64 7.671 19.5128 7.86245C19.2941 8.19161 18.4297 9.10272 18.1374 9.10272C17.3021 9.10272 17.2705 7.83158 17.271 6.93699L17.3789 2.49618C17.2606 1.34009 16.8891 1.07154 15.9438 0.906662C14.7678 0.701541 12.1619 0.753764 11.0476 0.981825C10.5675 1.08007 9.83232 1.44239 9.81963 2.02019Z" fill="#EA5D4A"/>
</svg>
