<svg width="22" height="19" viewBox="0 0 22 19" fill="none" xmlns="http://www.w3.org/2000/svg">
<path fill-rule="evenodd" clip-rule="evenodd" d="M12.0692 13.59C12.0031 13.635 11.9671 13.698 11.8981 13.746C11.8771 13.761 11.8711 13.761 11.8501 13.779C11.8381 13.788 11.8201 13.809 11.8081 13.821L11.178 14.4031C11.139 14.4361 11.127 14.4391 11.088 14.4782L9.56368 15.8734C9.52767 15.9094 9.51267 15.9124 9.47366 15.9454C9.38064 16.0294 9.30263 16.1285 9.20061 16.1975C9.22161 15.9364 9.32963 15.3573 9.37464 15.0933C9.46166 14.5712 9.54268 13.9441 9.63569 13.434C9.6567 13.3139 9.77372 12.4198 9.81873 12.3417L11.493 10.7814C11.5711 10.7244 11.6521 10.6194 11.7361 10.5504L13.5184 8.89109C13.5364 8.87609 13.5484 8.86408 13.5604 8.85208L14.1486 8.30598C14.2596 8.19195 14.3646 8.10494 14.4756 7.99392L14.6406 7.84689C14.6977 7.78988 14.7457 7.73287 14.8087 7.68486L15.0457 7.46582C15.1387 7.3878 15.2108 7.29778 15.3098 7.22277L16.2129 6.37061C16.252 6.3376 16.264 6.3346 16.303 6.29559L17.2211 5.44343C17.2541 5.41643 17.2751 5.39242 17.3052 5.36242C17.3352 5.33241 17.3532 5.30841 17.3862 5.2784C17.5092 5.16738 17.6982 5.01435 17.7912 4.88232C17.9593 4.65128 17.8152 4.2552 17.2091 4.66028C16.9031 4.86732 16.51 5.09836 16.1829 5.2904L16.0719 5.35941C16.0689 5.35941 16.0629 5.36242 16.0599 5.36542C16.0389 5.37742 16.0389 5.38042 16.0209 5.39242C15.9219 5.45543 15.8109 5.52445 15.7088 5.58746C15.6008 5.65047 15.5018 5.71048 15.3938 5.77949C15.2858 5.85151 15.1747 5.91152 15.0697 5.98053L14.3766 6.41862C14.3436 6.43962 14.3256 6.44562 14.2926 6.46663C14.2566 6.48463 14.2416 6.49363 14.2086 6.51463L13.1794 7.15676C13.0653 7.21677 12.9753 7.28278 12.8643 7.35179L11.9911 7.8889C11.9611 7.9099 11.9491 7.9189 11.9131 7.93991L10.5029 8.81007C10.4458 8.84908 10.4008 8.88209 10.3468 8.91509L9.90874 9.18514C9.88174 9.20315 9.89074 9.19715 9.86974 9.20915L9.11659 9.66823C8.67851 9.93529 8.25243 10.2173 7.81135 10.4784C7.74533 10.5174 7.71533 10.5414 7.64631 10.5774C7.5923 10.6074 7.52629 10.6404 7.49329 10.6854C7.39127 10.6194 6.77915 10.4394 6.61412 10.3854L3.94661 9.4792C3.74257 9.41019 3.55954 9.35017 3.3555 9.28416L3.08545 9.19415C3.01343 9.17014 2.8484 9.10413 2.77039 9.09513C2.8274 9.02011 3.12145 8.9391 3.23247 8.88509L3.85959 8.62404C4.03963 8.54602 4.21966 8.46501 4.3967 8.39299C4.58573 8.31498 4.76877 8.24296 4.9518 8.16195L5.77096 7.81388C5.95099 7.74187 6.12803 7.64585 6.31706 7.58284C6.70413 7.45381 8.06039 6.8447 8.49248 6.66766C8.57949 6.63166 8.67251 6.59265 8.76853 6.54764C9.22161 6.3466 9.6897 6.17257 10.1458 5.97753L10.5599 5.8005C11.058 5.57546 11.5681 5.38042 12.0692 5.16138L14.8177 4.00616C15.2588 3.82012 15.6698 3.61908 16.1199 3.45405L16.33 3.37004C16.378 3.34903 16.414 3.33403 16.468 3.31302C16.567 3.27402 16.654 3.23201 16.744 3.196L19.7716 1.92676C19.9307 1.85775 20.1737 1.73772 20.3327 1.70172C20.3327 1.88175 20.1017 2.95296 20.0627 3.166C20.0387 3.29202 20.0147 3.40604 19.9907 3.52307C19.9667 3.64309 19.9487 3.76911 19.9186 3.88913L19.8466 4.28221C19.8436 4.31822 19.8376 4.35122 19.8316 4.38123L18.5234 11.0605C18.5174 11.0875 18.5114 11.1055 18.5054 11.1235C18.5024 11.1355 18.4994 11.1775 18.4934 11.2105L18.4664 11.3606C18.4484 11.4896 18.4184 11.6036 18.3944 11.7326C18.2983 12.2127 18.2023 12.7108 18.1033 13.1969C18.0703 13.3619 17.3592 17.0676 17.3142 17.1787C17.2091 17.4247 16.9061 17.2927 16.771 17.1817C16.342 16.8306 15.8769 16.5155 15.4478 16.1615C15.1597 15.9214 14.8477 15.6964 14.5476 15.4713C14.3436 15.3183 13.8575 14.9252 13.7045 14.8232L13.4614 14.6402C13.4584 14.6372 13.4554 14.6342 13.4524 14.6342L13.3834 14.5862C13.3594 14.5652 13.3474 14.5562 13.3204 14.5352C13.2304 14.4692 13.1554 14.4061 13.0683 14.3431L12.4622 13.869C12.4382 13.851 12.4172 13.839 12.3932 13.821L12.1472 13.626C12.1142 13.602 12.1142 13.599 12.0692 13.59ZM6.16703 11.9487C6.17003 11.9997 6.17904 12.0117 6.19104 12.0537L6.39808 12.7498C6.44308 12.8848 6.48209 13.0379 6.5301 13.1759L6.79415 14.0431C7.0372 14.7632 7.22923 15.4893 7.46628 16.2065C7.51729 16.3535 7.5473 16.4885 7.5953 16.6356C7.70332 16.9506 7.76334 17.1487 7.92237 17.4397L8.03039 17.6107C8.1204 17.7218 8.20142 17.8178 8.31244 17.9018C8.37845 17.9498 8.40546 17.9678 8.48947 18.0038C8.86755 18.1779 9.25762 18.1328 9.62969 17.9738C9.84873 17.8778 10.1458 17.5537 10.3678 17.3467L10.5479 17.1847C10.5839 17.1517 10.6019 17.1457 10.6379 17.1097C10.6559 17.0947 10.6619 17.0886 10.6829 17.0706L10.6979 17.0556C10.7009 17.0556 10.7039 17.0496 10.7069 17.0496L11.013 16.7796C11.193 16.6296 11.355 16.4525 11.5321 16.2995C11.6551 16.1915 11.7631 16.0715 11.8921 15.9694C11.9281 15.9394 11.9491 15.9154 11.9821 15.8794C12.0211 15.8404 12.0301 15.8374 12.0722 15.8044C12.1112 15.7744 12.1262 15.7504 12.1682 15.7204C12.4532 15.9124 12.8553 16.2275 13.1464 16.4645C13.2004 16.5095 13.2454 16.5335 13.2964 16.5786L14.5656 17.5537C14.6136 17.5957 14.6556 17.6197 14.7037 17.6618L14.8417 17.7698C14.8957 17.8088 14.9377 17.8418 14.9887 17.8838C15.0367 17.9198 15.0847 17.9498 15.1297 17.9888C15.3638 18.1899 15.6278 18.3519 15.8649 18.5499L15.9759 18.6369C16.1889 18.814 16.621 18.934 16.9391 18.934C17.4672 18.934 17.8062 18.871 18.2233 18.5799L18.5654 18.2499C18.7274 18.0818 18.8775 17.7908 18.9255 17.5597L19.3305 15.5043C19.4086 15.1113 19.4776 14.7332 19.5556 14.3371C19.5766 14.2351 19.5916 14.1421 19.6126 14.0491C19.6246 13.9861 19.6156 13.9981 19.6336 13.923L19.7626 13.2329C20.1557 11.2855 20.5278 9.29616 20.9208 7.35479C20.9388 7.25878 20.9598 7.14776 20.9688 7.08474C20.9778 7.02473 20.9899 6.98872 20.9959 6.95272L21.0889 6.46663C21.0919 6.46362 21.0919 6.46062 21.0919 6.45762L21.926 2.19381C22.0461 1.5877 22.0491 1.11961 21.713 0.615511L21.575 0.441478C21.4249 0.276446 21.2149 0.165425 20.9989 0.0844096C20.3327 -0.164638 19.6486 0.19243 19.0455 0.444478L17.6502 1.03559C17.6022 1.05659 17.5812 1.0626 17.5302 1.0806C17.4942 1.0926 17.4642 1.11061 17.4282 1.12561L16.8701 1.35365C16.723 1.41366 16.585 1.47668 16.435 1.54269L14.0105 2.55988C13.9355 2.59289 13.8575 2.61989 13.7915 2.6529L12.4772 3.208C12.3272 3.27402 12.1832 3.33103 12.0301 3.40004L11.151 3.76611C11.103 3.78411 11.1 3.79012 11.046 3.81112C10.992 3.82912 10.9799 3.83812 10.9319 3.85913L6.45509 5.74649C6.41008 5.76749 6.38907 5.77649 6.34107 5.7945L4.82278 6.43962C4.78977 6.45462 4.75376 6.46663 4.71476 6.48163C4.68475 6.49063 4.67875 6.49363 4.65475 6.50263L3.72157 6.89571C3.57154 6.95872 3.43351 7.01873 3.28048 7.08174L2.19128 7.54683C2.00224 7.62785 1.84321 7.71486 1.66918 7.81388L1.57016 7.87989C1.32111 8.05993 1.13508 8.27897 1.01205 8.56703C0.799012 9.06812 0.955041 9.56322 1.2581 9.97129C1.45014 10.2293 1.86121 10.5024 2.17327 10.6104C2.26629 10.6434 2.3293 10.6614 2.41632 10.6974L4.27667 11.3276C4.58873 11.4326 4.89779 11.5556 5.21585 11.6366C5.36588 11.6756 5.53091 11.7386 5.68394 11.7926C5.79796 11.8316 6.05601 11.9397 6.16703 11.9487Z" fill="#EA5D4A"/>
</svg>
